HIERARCHY
ROOT Hips
{
	OFFSET 0.00000 0.00000 0.00000
	CHANNELS 6 Xposition Yposition Zposition Zrotation Yrotation Xrotation 
	JOINT LHipJoint
	{
		OFFSET 0 0 0
		CHANNELS 3 Zrotation Yrotation Xrotation
		JOINT LeftUpLeg
		{
			OFFSET 1.28858 -1.83292 1.03970
			CHANNELS 3 Zrotation Yrotation Xrotation
			JOINT LeftLeg
			{
				OFFSET 2.47846 -6.80952 0.00000
				CHANNELS 3 Zrotation Yrotation Xrotation
				JOINT LeftFoot
				{
					OFFSET 2.75274 -7.56311 0.00000
					CHANNELS 3 Zrotation Yrotation Xrotation
					JOINT LeftToeBase
					{
						OFFSET 0.12848 -0.35301 1.68223
						CHANNELS 3 Zrotation Yrotation Xrotation
						End Site
						{
							OFFSET 0.00000 -0.00000 0.87311
						}
					}
				}
			}
		}
	}
	JOINT RHipJoint
	{
		OFFSET 0 0 0
		CHANNELS 3 Zrotation Yrotation Xrotation
		JOINT RightUpLeg
		{
			OFFSET -1.31183 -1.83292 1.03970
			CHANNELS 3 Zrotation Yrotation Xrotation
			JOINT RightLeg
			{
				OFFSET -2.44740 -6.72417 0.00000
				CHANNELS 3 Zrotation Yrotation Xrotation
				JOINT RightFoot
				{
					OFFSET -2.67343 -7.34519 0.00000
					CHANNELS 3 Zrotation Yrotation Xrotation
					JOINT RightToeBase
					{
						OFFSET -0.16914 -0.46471 1.77626
						CHANNELS 3 Zrotation Yrotation Xrotation
						End Site
						{
							OFFSET -0.00000 -0.00000 0.92777
						}
					}
				}
			}
		}
	}
	JOINT LowerBack
	{
		OFFSET 0 0 0
		CHANNELS 3 Zrotation Yrotation Xrotation
		JOINT Spine
		{
			OFFSET 0.01249 2.14252 0.03842
			CHANNELS 3 Zrotation Yrotation Xrotation
			JOINT Spine1
			{
				OFFSET -0.02957 2.14199 -0.03751
				CHANNELS 3 Zrotation Yrotation Xrotation
				JOINT Neck
				{
					OFFSET 0 0 0
					CHANNELS 3 Zrotation Yrotation Xrotation
					JOINT Neck1
					{
						OFFSET -0.01678 1.65709 -0.05476
						CHANNELS 3 Zrotation Yrotation Xrotation
						JOINT Head
						{
							OFFSET 0.07912 1.58331 -0.11843
							CHANNELS 3 Zrotation Yrotation Xrotation
							End Site
							{
								OFFSET 0.03298 1.73940 -0.04271
							}
						}
					}
				}
				JOINT LeftShoulder
				{
					OFFSET 0 0 0
					CHANNELS 3 Zrotation Yrotation Xrotation
					JOINT LeftArm
					{
						OFFSET 3.39556 1.16496 0.08673
						CHANNELS 3 Zrotation Yrotation Xrotation
						JOINT LeftForeArm
						{
							OFFSET 5.23910 -0.00000 -0.00000
							CHANNELS 3 Zrotation Yrotation Xrotation
							JOINT LeftHand
							{
								OFFSET 3.31467 -0.00000 0.00000
								CHANNELS 3 Zrotation Yrotation Xrotation
								JOINT LeftFingerBase
								{
									OFFSET 0 0 0
									CHANNELS 3 Zrotation Yrotation Xrotation
									JOINT LeftHandIndex1
									{
										OFFSET 0.96590 -0.00000 0.00000
										CHANNELS 3 Zrotation Yrotation Xrotation
										End Site
										{
											OFFSET 0.77873 -0.00000 0.00000
										}
									}
								}
								JOINT LThumb
								{
									OFFSET 0 0 0
									CHANNELS 3 Zrotation Yrotation Xrotation
									End Site
									{
										OFFSET 0.79062 -0.00000 0.79062
									}
								}
							}
						}
					}
				}
				JOINT RightShoulder
				{
					OFFSET 0 0 0
					CHANNELS 3 Zrotation Yrotation Xrotation
					JOINT RightArm
					{
						OFFSET -3.27193 1.31331 0.33940
						CHANNELS 3 Zrotation Yrotation Xrotation
						JOINT RightForeArm
						{
							OFFSET -5.30252 -0.00000 0.00000
							CHANNELS 3 Zrotation Yrotation Xrotation
							JOINT RightHand
							{
								OFFSET -3.67875 -0.00000 0.00000
								CHANNELS 3 Zrotation Yrotation Xrotation
								JOINT RightFingerBase
								{
									OFFSET 0 0 0
									CHANNELS 3 Zrotation Yrotation Xrotation
									JOINT RightHandIndex1
									{
										OFFSET -0.59481 -0.00000 0.00000
										CHANNELS 3 Zrotation Yrotation Xrotation
										End Site
										{
											OFFSET -0.47955 -0.00000 0.00000
										}
									}
								}
								JOINT RThumb
								{
									OFFSET 0 0 0
									CHANNELS 3 Zrotation Yrotation Xrotation
									End Site
									{
										OFFSET -0.48687 -0.00000 0.48687
									}
								}
							}
						}
					}
				}
			}
		}
	}
}
MOTION
Frames: 13
Frame Time: 0.0120482
0.00 0.00 0.00 17.1931 -13.1622 -36.7048 0.0000 0.0000 0.0000 -13.7952 -1.9984 -81.6800 16.8974 19.7676 80.8948 1.4470 15.4155 -32.7939 1.2243 7.0177 19.7679 0.0000 0.0000 0.0000 1.0863 14.0554 -59.8030 -3.2086 -11.0253 32.3651 -40.0720 7.7866 170.5980 -0.4618 -4.3590 12.0890 -1.9937 1.5777 26.6069 -5.4188 1.0315 9.3116 -5.1111 0.5151 -4.2919 -1.0076 1.8928 -9.1923 -5.1704 2.7736 0.1667 -1.3479 1.2432 1.6890 -0.0000 0.0000 0.0000 5.5862 -31.8898 -4.9964 11.6897 -19.3376 -1.9983 -0.0000 0.0000 -17.0474 41.4946 -15.0044 -12.8987 -7.1250 0.0000 -0.0000 9.1420 10.4853 -7.4233 -0.0000 0.0000 0.0000 -14.7900 44.9515 -56.9097 -13.3178 21.7511 -2.5699 0.0000 0.0000 2.4776 -34.6881 -35.8273 22.0545 7.1250 -0.0000 -0.0000 -1.9428 -71.2546 1.2156
0.00 0.00 0.00 16.5780 -12.5203 -36.8209 0.0000 0.0000 0.0000 -14.1565 -2.9584 -81.1169 18.8293 19.9671 86.5752 5.9985 28.7127 -60.2048 1.1064 6.6830 18.7795 0.0000 0.0000 0.0000 0.8240 13.2518 -59.2078 -3.4544 -11.3966 33.6295 -40.2456 9.3165 173.1600 -0.5693 -4.8321 13.4304 -2.1090 1.5523 26.0104 -5.3382 1.0111 9.1680 -4.9277 0.5047 -4.1703 -1.2150 1.6724 -8.6697 -4.5632 2.5083 0.9782 -1.1320 1.1169 1.8393 -0.0000 0.0000 0.0000 6.5364 -33.0339 -3.1348 11.8452 -19.5721 -2.0502 -0.0000 0.0000 -15.9813 41.3732 -15.8631 -13.5366 -7.1250 0.0000 -0.0000 8.9006 9.4386 -7.4129 -0.0000 0.0000 0.0000 -13.7700 44.1510 -53.6326 -13.5814 22.1332 -2.6684 0.0000 0.0000 4.9567 -32.8778 -35.3173 20.4894 7.1250 -0.0000 -0.0000 0.5489 -70.1305 -0.3297
0.00 0.00 0.00 15.8912 -11.8357 -37.0248 0.0000 0.0000 0.0000 -14.5102 -3.9983 -80.2829 19.7029 19.9979 89.1312 21.7621 34.4178 -93.0015 1.1647 6.8510 19.2747 0.0000 0.0000 0.0000 0.6159 12.4308 -58.6271 -3.7048 -11.7568 34.8770 -40.3784 10.8297 175.7659 -0.6635 -5.2094 14.5069 -2.1727 1.4869 25.5291 -5.2854 0.9457 9.0829 -4.7964 0.4733 -4.0388 -1.3275 1.4715 -8.1902 -3.9180 2.2504 1.7819 -0.9204 0.9961 1.9990 -0.0000 -0.0000 0.0000 7.5212 -34.1681 -1.4615 12.1143 -19.9759 -2.1412 -0.0000 0.0000 -15.3311 41.0931 -16.5835 -13.9780 -7.1250 0.0000 -0.0000 8.5851 8.6138 -7.2870 -0.0000 -0.0000 0.0000 -12.5324 43.1966 -49.7047 -14.0586 22.8184 -2.8508 0.0000 0.0000 6.9349 -31.3024 -34.8290 19.1514 7.1250 -0.0000 -0.0000 2.5311 -69.1204 -1.4631
0.00 0.00 0.00 15.1179 -11.1726 -37.2885 0.0000 0.0000 0.0000 -14.8186 -5.0574 -79.1987 19.1495 19.9826 87.5127 36.6203 29.9806 -126.1528 1.3298 7.3026 20.6149 0.0000 0.0000 0.0000 0.5495 11.6352 -58.1017 -3.9512 -12.0952 36.0694 -40.4564 12.1029 178.0574 -0.7081 -5.3782 14.9906 -2.1719 1.3773 25.1463 -5.2405 0.8339 9.0548 -4.7017 0.4197 -3.8927 -1.3435 1.3077 -7.7464 -3.2850 2.0239 2.5347 -0.7278 0.8935 2.1534 -0.0000 -0.0000 0.0000 8.5257 -35.2436 -0.0883 12.4711 -20.5074 -2.2646 -0.0000 0.0000 -14.9274 40.6800 -17.1380 -14.2130 -7.1250 0.0000 -0.0000 8.2192 8.0377 -7.0642 -0.0000 -0.0000 0.0000 -11.2055 42.1810 -45.4286 -14.7331 23.7730 -3.1176 0.0000 0.0000 8.3877 -29.9608 -34.4329 18.0529 7.1250 -0.0000 -0.0000 4.1394 -68.2925 -2.3163
0.00 0.00 0.00 14.0169 -10.8210 -37.4461 0.0000 0.0000 0.0000 -14.6681 -5.9655 -78.0785 17.5372 19.8539 82.7823 40.0479 18.3586 -154.4136 1.4845 7.6977 21.7997 0.0000 0.0000 0.0000 1.1240 11.0321 -57.7757 -4.1859 -12.4037 37.1756 -40.4975 13.0434 179.5714 -0.7163 -5.4085 15.0775 -1.8252 1.2009 24.7914 -5.0941 0.7199 9.0348 -4.6959 0.3686 -3.7486 -1.2885 1.1849 -7.3183 -2.7029 1.8383 3.1936 -0.5615 0.8133 2.2841 0.0000 0.0000 0.0000 9.4951 -36.3985 0.5220 12.7403 -20.9054 -2.3598 -0.0000 0.0000 -14.1694 40.1928 -17.6134 -14.3403 -7.1250 0.0000 -0.0000 7.8233 7.5843 -6.7875 0.0000 0.0000 0.0000 -9.9301 41.3193 -41.4695 -15.5152 24.8590 -3.4396 0.0000 0.0000 9.6679 -29.0155 -34.1126 17.2792 7.1250 -0.0000 -0.0000 5.1961 -67.6738 -2.8357
0.00 0.00 0.00 3.5110 -12.4101 -36.6999 0.0000 0.0000 0.0000 -17.8494 -7.2205 -51.0463 4.5987 12.9171 39.0588 39.4956 -7.2581 -167.1269 3.8731 11.9896 35.6953 0.0000 0.0000 0.0000 6.0986 12.5853 -71.4008 -19.3470 -19.9898 88.0904 -43.9001 -38.0475 -142.3808 -0.1063 -2.1025 5.7890 -2.8879 0.1728 23.2819 -2.9553 -0.6681 8.9700 -1.3606 -0.3854 -3.1419 -0.2363 0.6995 -4.3184 2.8601 0.7471 6.5625 0.9906 0.4614 2.8307 0.0000 0.0000 0.0000 21.8736 -52.1169 -7.1917 23.5198 -34.6524 -7.4318 -0.0000 0.0000 -3.2656 38.7208 -25.3795 -18.9646 -7.1250 0.0000 -0.0000 5.3520 -1.2005 -5.4868 0.0000 0.0000 0.0000 8.5029 45.5720 6.5153 -38.5322 47.1759 -17.3549 0.0000 0.0000 6.5224 -19.6208 -27.1796 9.2488 7.1250 -0.0000 -0.0000 11.9309 -58.1766 -3.8821
0.00 0.00 0.00 2.9026 -12.5309 -36.1850 0.0000 0.0000 0.0000 -17.8444 -7.3578 -49.7267 4.3669 12.6333 38.0109 39.5393 -6.7083 -167.7369 3.8170 11.9128 35.4243 0.0000 0.0000 0.0000 6.4127 12.6157 -72.1493 -19.7384 -19.9984 89.2352 -23.9824 -49.1802 -94.1568 -0.0432 -1.3417 3.6896 -3.0859 0.1645 23.1848 -2.8051 -0.7101 8.9374 -1.0752 -0.4127 -3.1247 -0.2006 0.6333 -4.4547 3.2068 0.6344 6.3987 1.0922 0.4175 2.8036 -0.0000 -0.0000 0.0000 22.9691 -53.1864 -7.5621 25.1761 -36.3835 -8.3942 -0.0000 0.0000 -2.6229 38.7117 -25.8889 -19.2875 -7.1250 0.0000 -0.0000 5.2346 -1.7829 -5.4174 -0.0000 -0.0000 0.0000 10.1084 46.3021 8.9392 -40.8456 48.5630 -19.0708 0.0000 0.0000 7.4091 -18.6309 -26.0887 8.4333 7.1250 -0.0000 -0.0000 12.3967 -56.8744 -3.6459
0.00 0.00 0.00 2.3054 -12.5665 -35.5987 0.0000 0.0000 0.0000 -17.8189 -7.6516 -48.5059 4.2308 12.4613 37.3842 39.5866 -6.0964 -168.4253 3.7148 11.7709 34.9262 0.0000 0.0000 0.0000 6.6751 12.5560 -72.8314 -18.3043 -19.9309 85.0365 1.8139 -37.7116 -46.0846 -0.0035 -0.3815 1.0484 -3.3168 0.1519 23.0873 -2.6614 -0.7646 8.8918 -0.7754 -0.4461 -3.1201 -0.1522 0.5650 -4.6348 3.5358 0.5213 6.1753 1.1856 0.3728 2.7652 -0.0000 -0.0000 0.0000 24.1308 -54.3095 -7.9858 27.0093 -38.1881 -9.5049 -0.0000 0.0000 -1.9864 38.6636 -26.3515 -19.5525 -7.1250 0.0000 -0.0000 5.1040 -2.2967 -5.3253 -0.0000 -0.0000 0.0000 11.6858 46.9737 11.3932 -43.3171 49.9169 -20.9430 0.0000 0.0000 8.3456 -17.7537 -25.1210 7.7404 7.1250 -0.0000 -0.0000 12.8165 -55.7308 -3.4151
0.00 0.00 0.00 -0.4952 -12.9286 -32.7896 0.0000 0.0000 0.0000 -15.8984 -9.3432 -46.5523 4.3328 12.5906 37.8546 39.6987 -3.7686 -170.2415 3.6665 11.7028 34.6886 0.0000 0.0000 0.0000 8.4549 12.5306 -74.4966 -12.4799 -18.5862 67.5021 0.1882 -11.0819 -12.5776 -0.1133 2.1704 -5.9767 -3.1175 -0.0668 22.5968 -1.8654 -0.9443 8.5987 0.0105 -0.5393 -3.1848 -0.0139 0.3623 -5.5036 4.4544 0.2065 5.0809 1.4435 0.2441 2.5712 0.0000 0.0000 0.0000 28.3520 -57.8586 -9.9657 33.7860 -43.9256 -13.9644 -0.0000 0.0000 -1.1367 37.8254 -27.8190 -19.9167 -7.1250 0.0000 -0.0000 4.2938 -3.6797 -4.5730 0.0000 0.0000 0.0000 15.8743 48.8696 18.6582 -51.4983 53.5822 -27.3753 0.0000 0.0000 11.2691 -16.1710 -23.1812 6.5119 7.1250 -0.0000 -0.0000 13.5007 -53.5029 -2.8639
0.00 0.00 0.00 -2.9687 -12.4602 -29.6364 0.0000 0.0000 0.0000 -14.1200 -12.1815 -46.0401 4.6577 12.9876 39.3221 39.8509 0.9936 -172.2724 4.1002 12.2925 36.7748 0.0000 0.0000 0.0000 8.6406 12.3066 -75.0460 -7.2887 -15.5702 49.9578 0.1468 -8.5439 -8.6690 -0.2106 2.9549 -8.1533 -3.4319 -0.2645 22.2963 -1.1827 -1.2182 8.2863 0.9871 -0.6814 -3.3438 0.0488 0.0565 -6.7930 5.5741 -0.2277 3.5405 1.7745 0.0536 2.3175 0.0000 0.0000 0.0000 34.3042 -61.4498 -13.2174 42.9422 -49.7196 -20.6566 -0.0000 0.0000 -2.0312 36.0130 -29.0936 -19.4655 -7.1250 0.0000 -0.0000 2.9792 -4.5033 -3.2082 0.0000 0.0000 0.0000 19.3790 50.9122 25.4843 -60.3326 56.3979 -34.6180 0.0000 0.0000 13.9336 -15.5882 -21.8727 5.9337 7.1250 -0.0000 -0.0000 13.5051 -52.1040 -2.3979
0.00 0.00 0.00 -4.5338 -11.3690 -27.0191 0.0000 0.0000 0.0000 -13.6064 -15.1319 -46.4764 4.2321 12.4630 37.3901 40.2462 8.7618 -177.0513 3.7802 11.8620 35.2457 0.0000 0.0000 0.0000 5.9876 12.3288 -74.4450 -3.3742 -11.2774 33.2214 0.1107 -7.4387 -7.5577 -0.2697 3.3407 -9.2287 -4.4176 -0.2928 22.5922 -0.8253 -1.4574 8.0372 1.9974 -0.8038 -3.7106 -0.0110 -0.4218 -8.3916 6.8955 -0.8831 2.0676 2.1900 -0.2420 2.1625 0.0000 0.0000 0.0000 42.6450 -65.0570 -18.0214 54.5550 -54.6752 -29.8526 -0.0000 0.0000 -2.9970 34.8619 -29.9266 -19.1642 -7.1250 0.0000 -0.0000 2.1455 -5.0498 -2.3276 0.0000 0.0000 0.0000 22.1484 52.9527 31.8126 -70.3028 58.4820 -43.0286 0.0000 0.0000 16.1524 -15.6309 -21.3621 5.8192 7.1250 -0.0000 -0.0000 13.2521 -51.6052 -2.1879
0.00 0.00 0.00 -9.4065 -11.4754 -23.2471 0.0000 0.0000 0.0000 -9.1252 -18.1446 -54.4632 2.8130 10.3861 30.2362 40.1279 11.1335 174.2920 2.7207 10.2286 29.7204 0.0000 0.0000 0.0000 -5.9702 17.0105 -72.4563 -0.6641 -5.2117 14.5134 -0.6605 -9.6409 -21.7373 -0.2411 3.1600 -8.7244 -2.4852 -0.3771 23.9824 0.4059 -1.1159 8.3259 2.1601 -0.6261 -4.1308 -0.1929 -1.4147 -11.2735 8.4728 -2.1259 -0.9478 2.6789 -0.8450 1.7726 0.0000 -0.0000 0.0000 64.6605 -69.5416 -33.8640 79.3402 -59.5663 -50.7818 -0.0000 0.0000 -5.0750 31.0101 -31.5118 -17.4416 -7.1250 0.0000 -0.0000 -0.3508 -5.5965 0.3833 0.0000 -0.0000 0.0000 22.5588 57.0802 38.8788 -88.5310 59.9918 -58.7279 0.0000 0.0000 19.1547 -16.8964 -21.6948 6.4067 7.1250 -0.0000 -0.0000 12.1478 -52.1527 -2.1653
0.00 0.00 0.00 -8.9800 -10.9784 -27.1613 0.0000 0.0000 0.0000 -9.8642 -21.8008 -58.0840 1.7745 8.3796 23.8732 40.1984 10.8103 176.0410 2.6734 10.1466 29.4526 0.0000 0.0000 0.0000 -10.3466 16.4299 -72.9232 -1.2165 -6.9963 19.7043 -0.8251 -8.7951 -22.5066 -0.3882 4.0009 -11.0792 -4.5667 0.5275 29.7027 0.8657 -0.6702 10.4814 3.8137 -0.5003 -4.4376 -0.7943 -1.5105 -11.4434 7.6399 -1.8671 -5.6665 2.5021 -0.8554 0.2452 0.0000 0.0000 0.0000 84.5010 -71.9520 -50.3476 104.1818 -59.2262 -72.2499 -0.0000 0.0000 -5.2650 28.7493 -34.0590 -17.0792 -7.1250 0.0000 -0.0000 -2.1234 -7.6313 2.3881 0.0000 0.0000 0.0000 16.2370 63.3878 40.2537 -101.6844 59.4778 -70.1013 0.0000 0.0000 21.8483 -20.4304 -21.5860 7.8033 7.1250 -0.0000 -0.0000 8.5932 -52.6672 -1.6311
